<?xml version="1.0" standalone="no"?>
<svg xmlns="http://www.w3.org/2000/svg" version="1.1" width="1320" height="1320">
	<!-- Created with https://api.qrserver.com (QR Code API, see goQR.me/api for information) -->
	<title>QR Code</title>
	<desc>https://kgd80.ru/</desc>
	<rect style="fill:rgb(255, 255, 255);fill-opacity:1" x="0" y="0" width="1320" height="1320" />
	<g id="elements">
		<path style="fill:rgb(43, 37, 34)" d="M 160,160 l 40,0 0,40 -40,0 z M 200,160 l 40,0 0,40 -40,0 z M 240,160 l 40,0 0,40 -40,0 z M 280,160 l 40,0 0,40 -40,0 z M 320,160 l 40,0 0,40 -40,0 z M 360,160 l 40,0 0,40 -40,0 z M 400,160 l 40,0 0,40 -40,0 z M 560,160 l 40,0 0,40 -40,0 z M 680,160 l 40,0 0,40 -40,0 z M 760,160 l 40,0 0,40 -40,0 z M 880,160 l 40,0 0,40 -40,0 z M 920,160 l 40,0 0,40 -40,0 z M 960,160 l 40,0 0,40 -40,0 z M 1000,160 l 40,0 0,40 -40,0 z M 1040,160 l 40,0 0,40 -40,0 z M 1080,160 l 40,0 0,40 -40,0 z M 1120,160 l 40,0 0,40 -40,0 z M 160,200 l 40,0 0,40 -40,0 z M 400,200 l 40,0 0,40 -40,0 z M 680,200 l 40,0 0,40 -40,0 z M 720,200 l 40,0 0,40 -40,0 z M 760,200 l 40,0 0,40 -40,0 z M 800,200 l 40,0 0,40 -40,0 z M 880,200 l 40,0 0,40 -40,0 z M 1120,200 l 40,0 0,40 -40,0 z M 160,240 l 40,0 0,40 -40,0 z M 240,240 l 40,0 0,40 -40,0 z M 280,240 l 40,0 0,40 -40,0 z M 320,240 l 40,0 0,40 -40,0 z M 400,240 l 40,0 0,40 -40,0 z M 480,240 l 40,0 0,40 -40,0 z M 520,240 l 40,0 0,40 -40,0 z M 560,240 l 40,0 0,40 -40,0 z M 600,240 l 40,0 0,40 -40,0 z M 640,240 l 40,0 0,40 -40,0 z M 680,240 l 40,0 0,40 -40,0 z M 800,240 l 40,0 0,40 -40,0 z M 880,240 l 40,0 0,40 -40,0 z M 960,240 l 40,0 0,40 -40,0 z M 1000,240 l 40,0 0,40 -40,0 z M 1040,240 l 40,0 0,40 -40,0 z M 1120,240 l 40,0 0,40 -40,0 z M 160,280 l 40,0 0,40 -40,0 z M 240,280 l 40,0 0,40 -40,0 z M 280,280 l 40,0 0,40 -40,0 z M 320,280 l 40,0 0,40 -40,0 z M 400,280 l 40,0 0,40 -40,0 z M 480,280 l 40,0 0,40 -40,0 z M 720,280 l 40,0 0,40 -40,0 z M 880,280 l 40,0 0,40 -40,0 z M 960,280 l 40,0 0,40 -40,0 z M 1000,280 l 40,0 0,40 -40,0 z M 1040,280 l 40,0 0,40 -40,0 z M 1120,280 l 40,0 0,40 -40,0 z M 160,320 l 40,0 0,40 -40,0 z M 240,320 l 40,0 0,40 -40,0 z M 280,320 l 40,0 0,40 -40,0 z M 320,320 l 40,0 0,40 -40,0 z M 400,320 l 40,0 0,40 -40,0 z M 480,320 l 40,0 0,40 -40,0 z M 600,320 l 40,0 0,40 -40,0 z M 640,320 l 40,0 0,40 -40,0 z M 880,320 l 40,0 0,40 -40,0 z M 960,320 l 40,0 0,40 -40,0 z M 1000,320 l 40,0 0,40 -40,0 z M 1040,320 l 40,0 0,40 -40,0 z M 1120,320 l 40,0 0,40 -40,0 z M 160,360 l 40,0 0,40 -40,0 z M 400,360 l 40,0 0,40 -40,0 z M 480,360 l 40,0 0,40 -40,0 z M 520,360 l 40,0 0,40 -40,0 z M 600,360 l 40,0 0,40 -40,0 z M 760,360 l 40,0 0,40 -40,0 z M 800,360 l 40,0 0,40 -40,0 z M 880,360 l 40,0 0,40 -40,0 z M 1120,360 l 40,0 0,40 -40,0 z M 160,400 l 40,0 0,40 -40,0 z M 200,400 l 40,0 0,40 -40,0 z M 240,400 l 40,0 0,40 -40,0 z M 280,400 l 40,0 0,40 -40,0 z M 320,400 l 40,0 0,40 -40,0 z M 360,400 l 40,0 0,40 -40,0 z M 400,400 l 40,0 0,40 -40,0 z M 480,400 l 40,0 0,40 -40,0 z M 560,400 l 40,0 0,40 -40,0 z M 640,400 l 40,0 0,40 -40,0 z M 720,400 l 40,0 0,40 -40,0 z M 800,400 l 40,0 0,40 -40,0 z M 880,400 l 40,0 0,40 -40,0 z M 920,400 l 40,0 0,40 -40,0 z M 960,400 l 40,0 0,40 -40,0 z M 1000,400 l 40,0 0,40 -40,0 z M 1040,400 l 40,0 0,40 -40,0 z M 1080,400 l 40,0 0,40 -40,0 z M 1120,400 l 40,0 0,40 -40,0 z M 480,440 l 40,0 0,40 -40,0 z M 560,440 l 40,0 0,40 -40,0 z M 600,440 l 40,0 0,40 -40,0 z M 640,440 l 40,0 0,40 -40,0 z M 720,440 l 40,0 0,40 -40,0 z M 760,440 l 40,0 0,40 -40,0 z M 800,440 l 40,0 0,40 -40,0 z M 160,480 l 40,0 0,40 -40,0 z M 240,480 l 40,0 0,40 -40,0 z M 280,480 l 40,0 0,40 -40,0 z M 320,480 l 40,0 0,40 -40,0 z M 360,480 l 40,0 0,40 -40,0 z M 400,480 l 40,0 0,40 -40,0 z M 520,480 l 40,0 0,40 -40,0 z M 600,480 l 40,0 0,40 -40,0 z M 640,480 l 40,0 0,40 -40,0 z M 760,480 l 40,0 0,40 -40,0 z M 800,480 l 40,0 0,40 -40,0 z M 880,480 l 40,0 0,40 -40,0 z M 920,480 l 40,0 0,40 -40,0 z M 960,480 l 40,0 0,40 -40,0 z M 1000,480 l 40,0 0,40 -40,0 z M 1040,480 l 40,0 0,40 -40,0 z M 240,520 l 40,0 0,40 -40,0 z M 480,520 l 40,0 0,40 -40,0 z M 520,520 l 40,0 0,40 -40,0 z M 640,520 l 40,0 0,40 -40,0 z M 680,520 l 40,0 0,40 -40,0 z M 720,520 l 40,0 0,40 -40,0 z M 800,520 l 40,0 0,40 -40,0 z M 920,520 l 40,0 0,40 -40,0 z M 1080,520 l 40,0 0,40 -40,0 z M 200,560 l 40,0 0,40 -40,0 z M 320,560 l 40,0 0,40 -40,0 z M 400,560 l 40,0 0,40 -40,0 z M 480,560 l 40,0 0,40 -40,0 z M 520,560 l 40,0 0,40 -40,0 z M 640,560 l 40,0 0,40 -40,0 z M 680,560 l 40,0 0,40 -40,0 z M 720,560 l 40,0 0,40 -40,0 z M 760,560 l 40,0 0,40 -40,0 z M 840,560 l 40,0 0,40 -40,0 z M 880,560 l 40,0 0,40 -40,0 z M 920,560 l 40,0 0,40 -40,0 z M 960,560 l 40,0 0,40 -40,0 z M 1000,560 l 40,0 0,40 -40,0 z M 1080,560 l 40,0 0,40 -40,0 z M 1120,560 l 40,0 0,40 -40,0 z M 160,600 l 40,0 0,40 -40,0 z M 200,600 l 40,0 0,40 -40,0 z M 440,600 l 40,0 0,40 -40,0 z M 480,600 l 40,0 0,40 -40,0 z M 680,600 l 40,0 0,40 -40,0 z M 840,600 l 40,0 0,40 -40,0 z M 960,600 l 40,0 0,40 -40,0 z M 1120,600 l 40,0 0,40 -40,0 z M 280,640 l 40,0 0,40 -40,0 z M 320,640 l 40,0 0,40 -40,0 z M 400,640 l 40,0 0,40 -40,0 z M 440,640 l 40,0 0,40 -40,0 z M 560,640 l 40,0 0,40 -40,0 z M 600,640 l 40,0 0,40 -40,0 z M 640,640 l 40,0 0,40 -40,0 z M 720,640 l 40,0 0,40 -40,0 z M 760,640 l 40,0 0,40 -40,0 z M 800,640 l 40,0 0,40 -40,0 z M 840,640 l 40,0 0,40 -40,0 z M 880,640 l 40,0 0,40 -40,0 z M 960,640 l 40,0 0,40 -40,0 z M 1040,640 l 40,0 0,40 -40,0 z M 1080,640 l 40,0 0,40 -40,0 z M 1120,640 l 40,0 0,40 -40,0 z M 160,680 l 40,0 0,40 -40,0 z M 200,680 l 40,0 0,40 -40,0 z M 240,680 l 40,0 0,40 -40,0 z M 320,680 l 40,0 0,40 -40,0 z M 360,680 l 40,0 0,40 -40,0 z M 480,680 l 40,0 0,40 -40,0 z M 800,680 l 40,0 0,40 -40,0 z M 920,680 l 40,0 0,40 -40,0 z M 1000,680 l 40,0 0,40 -40,0 z M 1080,680 l 40,0 0,40 -40,0 z M 160,720 l 40,0 0,40 -40,0 z M 240,720 l 40,0 0,40 -40,0 z M 320,720 l 40,0 0,40 -40,0 z M 400,720 l 40,0 0,40 -40,0 z M 560,720 l 40,0 0,40 -40,0 z M 600,720 l 40,0 0,40 -40,0 z M 640,720 l 40,0 0,40 -40,0 z M 760,720 l 40,0 0,40 -40,0 z M 840,720 l 40,0 0,40 -40,0 z M 880,720 l 40,0 0,40 -40,0 z M 920,720 l 40,0 0,40 -40,0 z M 960,720 l 40,0 0,40 -40,0 z M 1000,720 l 40,0 0,40 -40,0 z M 1080,720 l 40,0 0,40 -40,0 z M 1120,720 l 40,0 0,40 -40,0 z M 160,760 l 40,0 0,40 -40,0 z M 240,760 l 40,0 0,40 -40,0 z M 280,760 l 40,0 0,40 -40,0 z M 320,760 l 40,0 0,40 -40,0 z M 360,760 l 40,0 0,40 -40,0 z M 440,760 l 40,0 0,40 -40,0 z M 520,760 l 40,0 0,40 -40,0 z M 600,760 l 40,0 0,40 -40,0 z M 720,760 l 40,0 0,40 -40,0 z M 800,760 l 40,0 0,40 -40,0 z M 880,760 l 40,0 0,40 -40,0 z M 920,760 l 40,0 0,40 -40,0 z M 960,760 l 40,0 0,40 -40,0 z M 1120,760 l 40,0 0,40 -40,0 z M 160,800 l 40,0 0,40 -40,0 z M 240,800 l 40,0 0,40 -40,0 z M 320,800 l 40,0 0,40 -40,0 z M 360,800 l 40,0 0,40 -40,0 z M 400,800 l 40,0 0,40 -40,0 z M 480,800 l 40,0 0,40 -40,0 z M 600,800 l 40,0 0,40 -40,0 z M 800,800 l 40,0 0,40 -40,0 z M 840,800 l 40,0 0,40 -40,0 z M 880,800 l 40,0 0,40 -40,0 z M 920,800 l 40,0 0,40 -40,0 z M 960,800 l 40,0 0,40 -40,0 z M 1040,800 l 40,0 0,40 -40,0 z M 480,840 l 40,0 0,40 -40,0 z M 640,840 l 40,0 0,40 -40,0 z M 680,840 l 40,0 0,40 -40,0 z M 720,840 l 40,0 0,40 -40,0 z M 760,840 l 40,0 0,40 -40,0 z M 800,840 l 40,0 0,40 -40,0 z M 960,840 l 40,0 0,40 -40,0 z M 1000,840 l 40,0 0,40 -40,0 z M 160,880 l 40,0 0,40 -40,0 z M 200,880 l 40,0 0,40 -40,0 z M 240,880 l 40,0 0,40 -40,0 z M 280,880 l 40,0 0,40 -40,0 z M 320,880 l 40,0 0,40 -40,0 z M 360,880 l 40,0 0,40 -40,0 z M 400,880 l 40,0 0,40 -40,0 z M 680,880 l 40,0 0,40 -40,0 z M 720,880 l 40,0 0,40 -40,0 z M 800,880 l 40,0 0,40 -40,0 z M 880,880 l 40,0 0,40 -40,0 z M 960,880 l 40,0 0,40 -40,0 z M 1040,880 l 40,0 0,40 -40,0 z M 1080,880 l 40,0 0,40 -40,0 z M 1120,880 l 40,0 0,40 -40,0 z M 160,920 l 40,0 0,40 -40,0 z M 400,920 l 40,0 0,40 -40,0 z M 480,920 l 40,0 0,40 -40,0 z M 520,920 l 40,0 0,40 -40,0 z M 640,920 l 40,0 0,40 -40,0 z M 680,920 l 40,0 0,40 -40,0 z M 760,920 l 40,0 0,40 -40,0 z M 800,920 l 40,0 0,40 -40,0 z M 960,920 l 40,0 0,40 -40,0 z M 1000,920 l 40,0 0,40 -40,0 z M 1080,920 l 40,0 0,40 -40,0 z M 1120,920 l 40,0 0,40 -40,0 z M 160,960 l 40,0 0,40 -40,0 z M 240,960 l 40,0 0,40 -40,0 z M 280,960 l 40,0 0,40 -40,0 z M 320,960 l 40,0 0,40 -40,0 z M 400,960 l 40,0 0,40 -40,0 z M 480,960 l 40,0 0,40 -40,0 z M 640,960 l 40,0 0,40 -40,0 z M 720,960 l 40,0 0,40 -40,0 z M 760,960 l 40,0 0,40 -40,0 z M 800,960 l 40,0 0,40 -40,0 z M 840,960 l 40,0 0,40 -40,0 z M 880,960 l 40,0 0,40 -40,0 z M 920,960 l 40,0 0,40 -40,0 z M 960,960 l 40,0 0,40 -40,0 z M 1040,960 l 40,0 0,40 -40,0 z M 1120,960 l 40,0 0,40 -40,0 z M 160,1000 l 40,0 0,40 -40,0 z M 240,1000 l 40,0 0,40 -40,0 z M 280,1000 l 40,0 0,40 -40,0 z M 320,1000 l 40,0 0,40 -40,0 z M 400,1000 l 40,0 0,40 -40,0 z M 480,1000 l 40,0 0,40 -40,0 z M 760,1000 l 40,0 0,40 -40,0 z M 880,1000 l 40,0 0,40 -40,0 z M 960,1000 l 40,0 0,40 -40,0 z M 1000,1000 l 40,0 0,40 -40,0 z M 1040,1000 l 40,0 0,40 -40,0 z M 1080,1000 l 40,0 0,40 -40,0 z M 1120,1000 l 40,0 0,40 -40,0 z M 160,1040 l 40,0 0,40 -40,0 z M 240,1040 l 40,0 0,40 -40,0 z M 280,1040 l 40,0 0,40 -40,0 z M 320,1040 l 40,0 0,40 -40,0 z M 400,1040 l 40,0 0,40 -40,0 z M 480,1040 l 40,0 0,40 -40,0 z M 600,1040 l 40,0 0,40 -40,0 z M 640,1040 l 40,0 0,40 -40,0 z M 760,1040 l 40,0 0,40 -40,0 z M 840,1040 l 40,0 0,40 -40,0 z M 1000,1040 l 40,0 0,40 -40,0 z M 1040,1040 l 40,0 0,40 -40,0 z M 1120,1040 l 40,0 0,40 -40,0 z M 160,1080 l 40,0 0,40 -40,0 z M 400,1080 l 40,0 0,40 -40,0 z M 520,1080 l 40,0 0,40 -40,0 z M 560,1080 l 40,0 0,40 -40,0 z M 600,1080 l 40,0 0,40 -40,0 z M 720,1080 l 40,0 0,40 -40,0 z M 800,1080 l 40,0 0,40 -40,0 z M 920,1080 l 40,0 0,40 -40,0 z M 960,1080 l 40,0 0,40 -40,0 z M 1000,1080 l 40,0 0,40 -40,0 z M 1120,1080 l 40,0 0,40 -40,0 z M 160,1120 l 40,0 0,40 -40,0 z M 200,1120 l 40,0 0,40 -40,0 z M 240,1120 l 40,0 0,40 -40,0 z M 280,1120 l 40,0 0,40 -40,0 z M 320,1120 l 40,0 0,40 -40,0 z M 360,1120 l 40,0 0,40 -40,0 z M 400,1120 l 40,0 0,40 -40,0 z M 480,1120 l 40,0 0,40 -40,0 z M 600,1120 l 40,0 0,40 -40,0 z M 760,1120 l 40,0 0,40 -40,0 z M 880,1120 l 40,0 0,40 -40,0 z M 920,1120 l 40,0 0,40 -40,0 z M 960,1120 l 40,0 0,40 -40,0 z M 1000,1120 l 40,0 0,40 -40,0 z M 1040,1120 l 40,0 0,40 -40,0 z M 1080,1120 l 40,0 0,40 -40,0 z M 1120,1120 l 40,0 0,40 -40,0 z " />
	</g>
</svg>
